<svg version="1.1" id="bookshelf" xmlns="http://www.w3.org/2000/svg" xmlns:xlink="http://www.w3.org/1999/xlink" viewBox="0 0 1000 1000">
<path id="XMLID_30_" class="st0" fill="#2069AC" d="M328.9,748h-59.4c-9.9,0-18-8.1-18-18V331c0-9.9,8.1-18,18-18h59.4c9.9,0,18,8.1,18,18v399
	C346.9,739.9,338.8,748,328.9,748z"/>
<path id="XMLID_31_" class="st1" fill="#4E4592" d="M456.9,748h-92c-9.9,0-18-8.1-18-18V268c0-9.9,8.1-18,18-18h92c9.9,0,18,8.1,18,18v462
	C474.9,739.9,466.8,748,456.9,748z"/>
<path id="XMLID_32_" class="st2" fill="#83B4D4" d="M733.8,723.5l-39.1,22.7c-13.3,7.7-30.5,3.2-38.3-10.1L484.8,440.7
	c-7.7-13.3-3.2-30.5,10.1-38.3l39.1-22.7c13.3-7.7,30.5-3.2,38.3,10.1l171.6,295.3C751.7,698.5,747.1,715.7,733.8,723.5z"/>
</svg>