<svg version="1.1" id="book" xmlns="http://www.w3.org/2000/svg" xmlns:xlink="http://www.w3.org/1999/xlink" viewBox="0 0 500 500">
<path id="XMLID_30_" class="st0" fill="#2131AA" d="M77.4,498H18c-9.9,0-18-8.1-18-18V81c0-9.9,8.1-18,18-18h59.4c9.9,0,18,8.1,18,18v399
	C95.4,489.9,87.3,498,77.4,498z"/>
<path id="XMLID_31_" class="st1" fill="#4E4592" d="M205.4,498h-92c-9.9,0-18-8.1-18-18V18c0-9.9,8.1-18,18-18h92c9.9,0,18,8.1,18,18v462
	C223.4,489.9,215.3,498,205.4,498z"/>
<path id="XMLID_32_" class="st2" fill="#83B4D4" d="M482.3,473.5l-39.1,22.7c-13.3,7.7-30.5,3.2-38.3-10.1L233.3,190.7
	c-7.7-13.3-3.2-30.5,10.1-38.3l39.1-22.7c13.3-7.7,30.5-3.2,38.3,10.1l171.6,295.3C500.2,448.5,495.6,465.7,482.3,473.5z"/>
</svg>
